<svg width="596" height="842" viewBox="0 0 596 842" fill="none" xmlns="http://www.w3.org/2000/svg">
<path d="M17.6301 707.91C18.0801 690.16 31.8101 677.32 49.9101 677.7C67.3801 678.07 80.6201 692.3 80.0901 710.13C79.5901 727 65.2501 740.43 48.0501 740.14C30.6001 739.84 17.1801 725.63 17.6301 707.91Z" fill="white"/>
<path d="M326.41 291.64C300.61 280.19 286.3 258.59 277.88 234.15C252.79 161.36 212.37 99.36 137.72 53.25C138.97 153.59 191.62 222.91 241.87 291.64H326.41Z" fill="white"/>
<path d="M308.97 246.39C278.27 183.55 280.31 123.79 307.87 61.3201C345.8 107.33 346.53 194.32 308.97 246.39Z" fill="white"/>
<path d="M101.82 292.81C64.0199 349.72 -57.7501 562.38 80.3399 587.43C99.9299 590.98 120.13 587.49 137.63 578.01C184.5 552.62 267.31 491.98 295.26 388.18C297.3 380.59 304.3 375.38 312.16 375.38H344.38C370.22 375.38 395.67 382.34 417.5 396.17C451.07 417.43 490.09 458.52 490.09 534.69C490.09 662.86 414.36 694.6 331.95 696.99C326.07 697.16 321.34 701.87 321.34 707.75V777.86C321.34 783.85 326.21 788.72 332.2 788.63C381.19 787.91 579.2 770.71 579.2 539.42C579.2 289.63 367.58 289.55 344.9 290.25C342.73 290.32 292.72 290.33 290.54 290.33H245.98C242.86 290.33 240.34 292.86 240.34 295.97V779.45C240.34 784.52 236.23 788.64 231.15 788.64H203.63C198.56 788.64 194.44 784.53 194.44 779.45L194.5 295.94C194.5 292.82 191.97 290.3 188.86 290.3H161C157.88 290.3 155.36 292.83 155.36 295.94L155.3 779.45C155.3 784.52 151.19 788.64 146.11 788.64H121.29C116.22 788.64 112.1 784.53 112.1 779.45L112.16 295.98C112.16 290.39 104.94 288.15 101.84 292.8L101.82 292.81Z" stroke="white" stroke-width="5" stroke-miterlimit="10"/>
</svg>
